<?xml version="1.0" encoding="utf-8"?>
<!-- Generator: Adobe Illustrator 16.0.0, SVG Export Plug-In . SVG Version: 6.00 Build 0)  -->
<!DOCTYPE svg PUBLIC "-//W3C//DTD SVG 1.1//EN" "http://www.w3.org/Graphics/SVG/1.1/DTD/svg11.dtd">
<svg version="1.1" id="Layer_1" xmlns="http://www.w3.org/2000/svg" xmlns:xlink="http://www.w3.org/1999/xlink" x="0px" y="0px"
	 width="500px" height="400px" viewBox="0 0 500 400" enable-background="new 0 0 500 400" xml:space="preserve">
<g>
	<path fill="#007DC6" d="M267.225,281.8c8.225,4.213,18.775,8.415,28.775,11.896v-96.529c-24-17.736-40.1-41.075-40.1-71.75
		c0-30.753,16.1-57.48,40.1-75.17V33h-73v125H103V33H30v324h73V221h120v136h73v0.27c-17-3.749-33.889-9.218-44.061-14.84
		L267.225,281.8z"/>
	<path fill="#00A651" d="M391.628,164.874c-41.863-15.879-60.147-25.022-60.147-45.712c0-16.842,15.399-31.276,47.157-31.276
		s54.854,9.142,67.845,15.397l16.36-59.186c-19.246-8.661-46.933-16.36-83.501-16.36c-33.986,0-61.342,8.371-83.342,22.509v146.921
		c15,9.529,30.821,17.446,49.658,24.005c38.978,13.954,54.744,25.502,54.744,45.713c0,21.171-18.359,35.126-52.041,35.126
		c-18.238,0-34.361-3.446-52.361-8.314v63.573c18,2.99,31.775,4.888,48.215,4.888c89.019,0,131.251-46.193,131.251-100.565
		C475.466,215.879,448.89,186.045,391.628,164.874z"/>
</g>
</svg>
